<mxfile host="app.diagrams.net" modified="2023-02-11T16:11:21.546Z" agent="5.0 (Windows NT 10.0; Win64; x64) AppleWebKit/537.36 (KHTML, like Gecko) Chrome/110.0.0.0 Safari/537.36" etag="9fwCsyRhlc3T9NPwimh3" version="20.8.20" type="github">
  <diagram id="I5EbGQrhW0DQ0lZaTKed" name="source and layer">
    <mxGraphModel dx="1450" dy="623" grid="1" gridSize="10" guides="1" tooltips="1" connect="1" arrows="1" fold="1" page="0" pageScale="1" pageWidth="1169" pageHeight="827" math="0" shadow="0">
      <root>
        <mxCell id="0" />
        <mxCell id="1" parent="0" />
        <mxCell id="H9F26J1FntCLbWu-KqOx-1" value="ol/layer/Layer" style="whiteSpace=wrap;html=1;rounded=1;arcSize=50;align=center;verticalAlign=middle;strokeWidth=1;autosize=1;spacing=4;treeFolding=1;treeMoving=1;newEdgeStyle={&quot;edgeStyle&quot;:&quot;entityRelationEdgeStyle&quot;,&quot;startArrow&quot;:&quot;none&quot;,&quot;endArrow&quot;:&quot;none&quot;,&quot;segment&quot;:10,&quot;curved&quot;:1};fontSize=16;" parent="1" vertex="1">
          <mxGeometry x="554" y="60" width="131" height="31" as="geometry" />
        </mxCell>
        <mxCell id="H9F26J1FntCLbWu-KqOx-2" value="" style="edgeStyle=entityRelationEdgeStyle;startArrow=none;endArrow=none;segment=10;rounded=1;exitX=1;exitY=0.5;exitDx=0;exitDy=0;fontSize=16;curved=1;" parent="1" source="H9F26J1FntCLbWu-KqOx-10" target="H9F26J1FntCLbWu-KqOx-1" edge="1">
          <mxGeometry relative="1" as="geometry">
            <mxPoint x="444" y="370" as="sourcePoint" />
          </mxGeometry>
        </mxCell>
        <mxCell id="H9F26J1FntCLbWu-KqOx-10" value="&lt;font style=&quot;font-size: 16px&quot;&gt;ol/layer/Base&lt;/font&gt;" style="rounded=1;whiteSpace=wrap;html=1;" parent="1" vertex="1">
          <mxGeometry x="354" y="380" width="120" height="40" as="geometry" />
        </mxCell>
        <mxCell id="H9F26J1FntCLbWu-KqOx-11" value="ol/layer/Group" style="whiteSpace=wrap;html=1;rounded=1;arcSize=50;align=center;verticalAlign=middle;strokeWidth=1;autosize=1;spacing=4;treeFolding=1;treeMoving=1;newEdgeStyle={&quot;edgeStyle&quot;:&quot;entityRelationEdgeStyle&quot;,&quot;startArrow&quot;:&quot;none&quot;,&quot;endArrow&quot;:&quot;none&quot;,&quot;segment&quot;:10,&quot;curved&quot;:1};fontSize=16;" parent="1" vertex="1">
          <mxGeometry x="544" y="560" width="140" height="30" as="geometry" />
        </mxCell>
        <mxCell id="H9F26J1FntCLbWu-KqOx-12" value="" style="edgeStyle=entityRelationEdgeStyle;startArrow=none;endArrow=none;segment=10;rounded=1;exitX=1;exitY=0.5;exitDx=0;exitDy=0;fontSize=16;curved=1;" parent="1" source="H9F26J1FntCLbWu-KqOx-10" target="H9F26J1FntCLbWu-KqOx-11" edge="1">
          <mxGeometry relative="1" as="geometry">
            <mxPoint x="464" y="428" as="sourcePoint" />
          </mxGeometry>
        </mxCell>
        <mxCell id="H9F26J1FntCLbWu-KqOx-14" value="ol/layer/BaseImage" style="whiteSpace=wrap;html=1;rounded=1;arcSize=50;align=center;verticalAlign=middle;strokeWidth=1;autosize=1;spacing=4;treeFolding=1;treeMoving=1;newEdgeStyle={&quot;edgeStyle&quot;:&quot;entityRelationEdgeStyle&quot;,&quot;startArrow&quot;:&quot;none&quot;,&quot;endArrow&quot;:&quot;none&quot;,&quot;segment&quot;:10,&quot;curved&quot;:1};sketch=0;fontSize=16;" parent="1" vertex="1">
          <mxGeometry x="774" y="30" width="180" height="30" as="geometry" />
        </mxCell>
        <mxCell id="H9F26J1FntCLbWu-KqOx-15" value="" style="edgeStyle=entityRelationEdgeStyle;startArrow=none;endArrow=none;segment=10;rounded=1;sketch=0;exitX=1;exitY=0.5;exitDx=0;exitDy=0;fontSize=16;curved=1;" parent="1" source="H9F26J1FntCLbWu-KqOx-1" target="H9F26J1FntCLbWu-KqOx-14" edge="1">
          <mxGeometry relative="1" as="geometry">
            <mxPoint x="645" y="270" as="sourcePoint" />
          </mxGeometry>
        </mxCell>
        <mxCell id="H9F26J1FntCLbWu-KqOx-16" value="ol/layer/BaseTile" style="whiteSpace=wrap;html=1;rounded=1;arcSize=50;align=center;verticalAlign=middle;strokeWidth=1;autosize=1;spacing=4;treeFolding=1;treeMoving=1;newEdgeStyle={&quot;edgeStyle&quot;:&quot;entityRelationEdgeStyle&quot;,&quot;startArrow&quot;:&quot;none&quot;,&quot;endArrow&quot;:&quot;none&quot;,&quot;segment&quot;:10,&quot;curved&quot;:1};sketch=0;fontSize=16;" parent="1" vertex="1">
          <mxGeometry x="779" y="150" width="160" height="30" as="geometry" />
        </mxCell>
        <mxCell id="H9F26J1FntCLbWu-KqOx-17" value="" style="edgeStyle=entityRelationEdgeStyle;startArrow=none;endArrow=none;segment=10;rounded=1;sketch=0;exitX=1;exitY=0.5;exitDx=0;exitDy=0;fontSize=16;curved=1;" parent="1" source="H9F26J1FntCLbWu-KqOx-1" target="H9F26J1FntCLbWu-KqOx-16" edge="1">
          <mxGeometry relative="1" as="geometry">
            <mxPoint x="645" y="280" as="sourcePoint" />
          </mxGeometry>
        </mxCell>
        <mxCell id="H9F26J1FntCLbWu-KqOx-18" value="ol/layer/BaseVector" style="whiteSpace=wrap;html=1;rounded=1;arcSize=50;align=center;verticalAlign=middle;strokeWidth=1;autosize=1;spacing=4;treeFolding=1;treeMoving=1;newEdgeStyle={&quot;edgeStyle&quot;:&quot;entityRelationEdgeStyle&quot;,&quot;startArrow&quot;:&quot;none&quot;,&quot;endArrow&quot;:&quot;none&quot;,&quot;segment&quot;:10,&quot;curved&quot;:1};sketch=0;fontSize=16;" parent="1" vertex="1">
          <mxGeometry x="774" y="268" width="180" height="30" as="geometry" />
        </mxCell>
        <mxCell id="H9F26J1FntCLbWu-KqOx-19" value="" style="edgeStyle=entityRelationEdgeStyle;startArrow=none;endArrow=none;segment=10;rounded=1;sketch=0;exitX=1;exitY=0.5;exitDx=0;exitDy=0;fontSize=16;curved=1;" parent="1" source="H9F26J1FntCLbWu-KqOx-1" target="H9F26J1FntCLbWu-KqOx-18" edge="1">
          <mxGeometry relative="1" as="geometry">
            <mxPoint x="635" y="340" as="sourcePoint" />
          </mxGeometry>
        </mxCell>
        <mxCell id="H9F26J1FntCLbWu-KqOx-20" value="抽象类" style="text;html=1;align=center;verticalAlign=middle;resizable=0;points=[];autosize=1;strokeColor=none;fillColor=none;fontSize=16;rounded=1;" parent="1" vertex="1">
          <mxGeometry x="384" y="360" width="60" height="20" as="geometry" />
        </mxCell>
        <mxCell id="H9F26J1FntCLbWu-KqOx-21" value="ol/layer/Image" style="whiteSpace=wrap;html=1;rounded=1;arcSize=50;align=center;verticalAlign=middle;strokeWidth=1;autosize=1;spacing=4;treeFolding=1;treeMoving=1;newEdgeStyle={&quot;edgeStyle&quot;:&quot;entityRelationEdgeStyle&quot;,&quot;startArrow&quot;:&quot;none&quot;,&quot;endArrow&quot;:&quot;none&quot;,&quot;segment&quot;:10,&quot;curved&quot;:1};sketch=0;fontSize=16;" parent="1" vertex="1">
          <mxGeometry x="1004" y="30" width="140" height="30" as="geometry" />
        </mxCell>
        <mxCell id="H9F26J1FntCLbWu-KqOx-22" value="" style="edgeStyle=entityRelationEdgeStyle;startArrow=none;endArrow=none;segment=10;rounded=1;sketch=0;fontSize=16;exitX=1;exitY=0.5;exitDx=0;exitDy=0;curved=1;" parent="1" source="H9F26J1FntCLbWu-KqOx-14" target="H9F26J1FntCLbWu-KqOx-21" edge="1">
          <mxGeometry relative="1" as="geometry">
            <mxPoint x="824" y="200" as="sourcePoint" />
          </mxGeometry>
        </mxCell>
        <mxCell id="LiceOfBnI9fiPLoIfjBw-2" value="ol/layer/Tile" style="whiteSpace=wrap;html=1;rounded=1;arcSize=50;align=center;verticalAlign=middle;strokeWidth=1;autosize=1;spacing=4;treeFolding=1;treeMoving=1;newEdgeStyle={&quot;edgeStyle&quot;:&quot;entityRelationEdgeStyle&quot;,&quot;startArrow&quot;:&quot;none&quot;,&quot;endArrow&quot;:&quot;none&quot;,&quot;segment&quot;:10,&quot;curved&quot;:1};sketch=0;fontSize=16;" parent="1" vertex="1">
          <mxGeometry x="994" y="120" width="120" height="30" as="geometry" />
        </mxCell>
        <mxCell id="LiceOfBnI9fiPLoIfjBw-3" value="" style="edgeStyle=entityRelationEdgeStyle;startArrow=none;endArrow=none;segment=10;rounded=1;sketch=0;exitX=1;exitY=0.5;exitDx=0;exitDy=0;fontSize=16;curved=1;" parent="1" source="H9F26J1FntCLbWu-KqOx-16" target="LiceOfBnI9fiPLoIfjBw-2" edge="1">
          <mxGeometry relative="1" as="geometry">
            <mxPoint x="934" y="160" as="sourcePoint" />
          </mxGeometry>
        </mxCell>
        <mxCell id="LiceOfBnI9fiPLoIfjBw-4" value="ol/layer/WebGLTile" style="whiteSpace=wrap;html=1;rounded=1;arcSize=50;align=center;verticalAlign=middle;strokeWidth=1;autosize=1;spacing=4;treeFolding=1;treeMoving=1;newEdgeStyle={&quot;edgeStyle&quot;:&quot;entityRelationEdgeStyle&quot;,&quot;startArrow&quot;:&quot;none&quot;,&quot;endArrow&quot;:&quot;none&quot;,&quot;segment&quot;:10,&quot;curved&quot;:1};sketch=0;fontSize=16;" parent="1" vertex="1">
          <mxGeometry x="989" y="190" width="170" height="30" as="geometry" />
        </mxCell>
        <mxCell id="LiceOfBnI9fiPLoIfjBw-5" value="" style="edgeStyle=entityRelationEdgeStyle;startArrow=none;endArrow=none;segment=10;rounded=1;sketch=0;exitX=1;exitY=0.5;exitDx=0;exitDy=0;fontSize=16;curved=1;" parent="1" source="H9F26J1FntCLbWu-KqOx-16" target="LiceOfBnI9fiPLoIfjBw-4" edge="1">
          <mxGeometry relative="1" as="geometry">
            <mxPoint x="964" y="240" as="sourcePoint" />
          </mxGeometry>
        </mxCell>
        <mxCell id="LiceOfBnI9fiPLoIfjBw-6" value="ol/layer/Heatmap" style="whiteSpace=wrap;html=1;rounded=1;arcSize=50;align=center;verticalAlign=middle;strokeWidth=1;autosize=1;spacing=4;treeFolding=1;treeMoving=1;newEdgeStyle={&quot;edgeStyle&quot;:&quot;entityRelationEdgeStyle&quot;,&quot;startArrow&quot;:&quot;none&quot;,&quot;endArrow&quot;:&quot;none&quot;,&quot;segment&quot;:10,&quot;curved&quot;:1};sketch=0;fontSize=16;" parent="1" vertex="1">
          <mxGeometry x="1074" y="250" width="160" height="30" as="geometry" />
        </mxCell>
        <mxCell id="LiceOfBnI9fiPLoIfjBw-7" value="" style="edgeStyle=entityRelationEdgeStyle;startArrow=none;endArrow=none;segment=10;rounded=1;sketch=0;exitX=1;exitY=0.5;exitDx=0;exitDy=0;fontSize=16;curved=1;" parent="1" source="H9F26J1FntCLbWu-KqOx-18" target="LiceOfBnI9fiPLoIfjBw-6" edge="1">
          <mxGeometry relative="1" as="geometry">
            <mxPoint x="974" y="280" as="sourcePoint" />
          </mxGeometry>
        </mxCell>
        <mxCell id="LiceOfBnI9fiPLoIfjBw-8" value="ol/layer/VectorImage" style="whiteSpace=wrap;html=1;rounded=1;arcSize=50;align=center;verticalAlign=middle;strokeWidth=1;autosize=1;spacing=4;treeFolding=1;treeMoving=1;newEdgeStyle={&quot;edgeStyle&quot;:&quot;entityRelationEdgeStyle&quot;,&quot;startArrow&quot;:&quot;none&quot;,&quot;endArrow&quot;:&quot;none&quot;,&quot;segment&quot;:10,&quot;curved&quot;:1};sketch=0;fontSize=16;" parent="1" vertex="1">
          <mxGeometry x="1072" y="310" width="181" height="31" as="geometry" />
        </mxCell>
        <mxCell id="LiceOfBnI9fiPLoIfjBw-9" value="" style="edgeStyle=entityRelationEdgeStyle;startArrow=none;endArrow=none;segment=10;rounded=1;sketch=0;exitX=1;exitY=0.5;exitDx=0;exitDy=0;fontSize=16;curved=1;" parent="1" source="H9F26J1FntCLbWu-KqOx-18" target="LiceOfBnI9fiPLoIfjBw-8" edge="1">
          <mxGeometry relative="1" as="geometry">
            <mxPoint x="992" y="360" as="sourcePoint" />
          </mxGeometry>
        </mxCell>
        <mxCell id="LiceOfBnI9fiPLoIfjBw-10" value="ol/layer/VectorTile" style="whiteSpace=wrap;html=1;rounded=1;arcSize=50;align=center;verticalAlign=middle;strokeWidth=1;autosize=1;spacing=4;treeFolding=1;treeMoving=1;newEdgeStyle={&quot;edgeStyle&quot;:&quot;entityRelationEdgeStyle&quot;,&quot;startArrow&quot;:&quot;none&quot;,&quot;endArrow&quot;:&quot;none&quot;,&quot;segment&quot;:10,&quot;curved&quot;:1};sketch=0;fontSize=16;" parent="1" vertex="1">
          <mxGeometry x="1069" y="370" width="170" height="30" as="geometry" />
        </mxCell>
        <mxCell id="LiceOfBnI9fiPLoIfjBw-11" value="" style="edgeStyle=entityRelationEdgeStyle;startArrow=none;endArrow=none;segment=10;rounded=1;sketch=0;exitX=1;exitY=0.5;exitDx=0;exitDy=0;fontSize=16;curved=1;" parent="1" source="H9F26J1FntCLbWu-KqOx-18" target="LiceOfBnI9fiPLoIfjBw-10" edge="1">
          <mxGeometry relative="1" as="geometry">
            <mxPoint x="1124" y="490" as="sourcePoint" />
          </mxGeometry>
        </mxCell>
        <mxCell id="LiceOfBnI9fiPLoIfjBw-12" value="ol/layer/Vector" style="whiteSpace=wrap;html=1;rounded=1;arcSize=50;align=center;verticalAlign=middle;strokeWidth=1;autosize=1;spacing=4;treeFolding=1;treeMoving=1;newEdgeStyle={&quot;edgeStyle&quot;:&quot;entityRelationEdgeStyle&quot;,&quot;startArrow&quot;:&quot;none&quot;,&quot;endArrow&quot;:&quot;none&quot;,&quot;segment&quot;:10,&quot;curved&quot;:1};sketch=0;fontSize=16;" parent="1" vertex="1">
          <mxGeometry x="1072" y="441" width="137" height="31" as="geometry" />
        </mxCell>
        <mxCell id="LiceOfBnI9fiPLoIfjBw-13" value="" style="edgeStyle=entityRelationEdgeStyle;startArrow=none;endArrow=none;segment=10;rounded=1;sketch=0;fontSize=16;exitX=1;exitY=0.5;exitDx=0;exitDy=0;curved=1;" parent="1" source="H9F26J1FntCLbWu-KqOx-18" target="LiceOfBnI9fiPLoIfjBw-12" edge="1">
          <mxGeometry relative="1" as="geometry">
            <mxPoint x="974" y="510" as="sourcePoint" />
          </mxGeometry>
        </mxCell>
        <mxCell id="LiceOfBnI9fiPLoIfjBw-17" value="ol/layer/MapboxVector" style="whiteSpace=wrap;html=1;rounded=1;arcSize=50;align=center;verticalAlign=middle;strokeWidth=1;autosize=1;spacing=4;treeFolding=1;treeMoving=1;newEdgeStyle={&quot;edgeStyle&quot;:&quot;entityRelationEdgeStyle&quot;,&quot;startArrow&quot;:&quot;none&quot;,&quot;endArrow&quot;:&quot;none&quot;,&quot;segment&quot;:10,&quot;curved&quot;:1};sketch=0;fontSize=16;" parent="1" vertex="1">
          <mxGeometry x="1274" y="369" width="193" height="31" as="geometry" />
        </mxCell>
        <mxCell id="LiceOfBnI9fiPLoIfjBw-18" value="" style="edgeStyle=entityRelationEdgeStyle;startArrow=none;endArrow=none;segment=10;rounded=1;sketch=0;fontSize=16;exitX=1;exitY=0.5;exitDx=0;exitDy=0;curved=1;" parent="1" source="LiceOfBnI9fiPLoIfjBw-10" target="LiceOfBnI9fiPLoIfjBw-17" edge="1">
          <mxGeometry relative="1" as="geometry">
            <mxPoint x="1263" y="389.5" as="sourcePoint" />
          </mxGeometry>
        </mxCell>
        <mxCell id="LiceOfBnI9fiPLoIfjBw-19" value="ol/layer/Graticule" style="whiteSpace=wrap;html=1;rounded=1;arcSize=50;align=center;verticalAlign=middle;strokeWidth=1;autosize=1;spacing=4;treeFolding=1;treeMoving=1;newEdgeStyle={&quot;edgeStyle&quot;:&quot;entityRelationEdgeStyle&quot;,&quot;startArrow&quot;:&quot;none&quot;,&quot;endArrow&quot;:&quot;none&quot;,&quot;segment&quot;:10,&quot;curved&quot;:1};sketch=0;fontSize=16;" parent="1" vertex="1">
          <mxGeometry x="1274" y="441" width="155" height="31" as="geometry" />
        </mxCell>
        <mxCell id="LiceOfBnI9fiPLoIfjBw-20" value="" style="edgeStyle=entityRelationEdgeStyle;startArrow=none;endArrow=none;segment=10;rounded=1;sketch=0;fontSize=16;exitX=1;exitY=0.5;exitDx=0;exitDy=0;curved=1;" parent="1" source="LiceOfBnI9fiPLoIfjBw-12" target="LiceOfBnI9fiPLoIfjBw-19" edge="1">
          <mxGeometry relative="1" as="geometry">
            <mxPoint x="1275" y="476.5" as="sourcePoint" />
          </mxGeometry>
        </mxCell>
        <mxCell id="LiceOfBnI9fiPLoIfjBw-24" value="ol/source/Image" style="whiteSpace=wrap;html=1;rounded=1;arcSize=50;align=center;verticalAlign=middle;strokeWidth=1;autosize=1;spacing=4;treeFolding=1;treeMoving=1;newEdgeStyle={&quot;edgeStyle&quot;:&quot;entityRelationEdgeStyle&quot;,&quot;startArrow&quot;:&quot;none&quot;,&quot;endArrow&quot;:&quot;none&quot;,&quot;segment&quot;:10,&quot;curved&quot;:1};fontSize=16;" parent="1" vertex="1">
          <mxGeometry x="559" y="732" width="149" height="31" as="geometry" />
        </mxCell>
        <mxCell id="LiceOfBnI9fiPLoIfjBw-25" value="" style="edgeStyle=entityRelationEdgeStyle;startArrow=none;endArrow=none;segment=10;rounded=1;exitX=1;exitY=0.5;exitDx=0;exitDy=0;fontSize=16;curved=1;" parent="1" source="LiceOfBnI9fiPLoIfjBw-26" target="LiceOfBnI9fiPLoIfjBw-24" edge="1">
          <mxGeometry relative="1" as="geometry">
            <mxPoint x="457" y="1042" as="sourcePoint" />
          </mxGeometry>
        </mxCell>
        <mxCell id="LiceOfBnI9fiPLoIfjBw-26" value="&lt;font style=&quot;font-size: 16px&quot;&gt;ol/source/Source&lt;/font&gt;" style="rounded=1;whiteSpace=wrap;html=1;" parent="1" vertex="1">
          <mxGeometry x="354" y="1052" width="133" height="40" as="geometry" />
        </mxCell>
        <mxCell id="LiceOfBnI9fiPLoIfjBw-27" value="ol/source/Tile" style="whiteSpace=wrap;html=1;rounded=1;arcSize=50;align=center;verticalAlign=middle;strokeWidth=1;autosize=1;spacing=4;treeFolding=1;treeMoving=1;newEdgeStyle={&quot;edgeStyle&quot;:&quot;entityRelationEdgeStyle&quot;,&quot;startArrow&quot;:&quot;none&quot;,&quot;endArrow&quot;:&quot;none&quot;,&quot;segment&quot;:10,&quot;curved&quot;:1};fontSize=16;" parent="1" vertex="1">
          <mxGeometry x="590" y="1440" width="129" height="31" as="geometry" />
        </mxCell>
        <mxCell id="LiceOfBnI9fiPLoIfjBw-28" value="" style="edgeStyle=entityRelationEdgeStyle;startArrow=none;endArrow=none;segment=10;rounded=1;exitX=1;exitY=0.5;exitDx=0;exitDy=0;fontSize=16;curved=1;" parent="1" source="LiceOfBnI9fiPLoIfjBw-26" target="LiceOfBnI9fiPLoIfjBw-27" edge="1">
          <mxGeometry relative="1" as="geometry">
            <mxPoint x="477" y="1100" as="sourcePoint" />
          </mxGeometry>
        </mxCell>
        <mxCell id="LiceOfBnI9fiPLoIfjBw-29" value="ol/source/ImageArcGISRest" style="whiteSpace=wrap;html=1;rounded=1;arcSize=50;align=center;verticalAlign=middle;strokeWidth=1;autosize=1;spacing=4;treeFolding=1;treeMoving=1;newEdgeStyle={&quot;edgeStyle&quot;:&quot;entityRelationEdgeStyle&quot;,&quot;startArrow&quot;:&quot;none&quot;,&quot;endArrow&quot;:&quot;none&quot;,&quot;segment&quot;:10,&quot;curved&quot;:1};sketch=0;fontSize=16;" parent="1" vertex="1">
          <mxGeometry x="761" y="702" width="233" height="31" as="geometry" />
        </mxCell>
        <mxCell id="LiceOfBnI9fiPLoIfjBw-30" value="" style="edgeStyle=entityRelationEdgeStyle;startArrow=none;endArrow=none;segment=10;rounded=1;sketch=0;exitX=1;exitY=0.5;exitDx=0;exitDy=0;fontSize=16;curved=1;" parent="1" source="LiceOfBnI9fiPLoIfjBw-24" target="LiceOfBnI9fiPLoIfjBw-29" edge="1">
          <mxGeometry relative="1" as="geometry">
            <mxPoint x="658" y="942" as="sourcePoint" />
          </mxGeometry>
        </mxCell>
        <mxCell id="LiceOfBnI9fiPLoIfjBw-31" value="ol/source/ImageCanvas" style="whiteSpace=wrap;html=1;rounded=1;arcSize=50;align=center;verticalAlign=middle;strokeWidth=1;autosize=1;spacing=4;treeFolding=1;treeMoving=1;newEdgeStyle={&quot;edgeStyle&quot;:&quot;entityRelationEdgeStyle&quot;,&quot;startArrow&quot;:&quot;none&quot;,&quot;endArrow&quot;:&quot;none&quot;,&quot;segment&quot;:10,&quot;curved&quot;:1};sketch=0;fontSize=16;" parent="1" vertex="1">
          <mxGeometry x="762" y="790" width="203" height="31" as="geometry" />
        </mxCell>
        <mxCell id="LiceOfBnI9fiPLoIfjBw-32" value="" style="edgeStyle=entityRelationEdgeStyle;startArrow=none;endArrow=none;segment=10;rounded=1;sketch=0;exitX=1;exitY=0.5;exitDx=0;exitDy=0;fontSize=16;curved=1;" parent="1" source="LiceOfBnI9fiPLoIfjBw-24" target="LiceOfBnI9fiPLoIfjBw-31" edge="1">
          <mxGeometry relative="1" as="geometry">
            <mxPoint x="658" y="952" as="sourcePoint" />
          </mxGeometry>
        </mxCell>
        <mxCell id="LiceOfBnI9fiPLoIfjBw-33" value="ol/source/ImageMapGuide" style="whiteSpace=wrap;html=1;rounded=1;arcSize=50;align=center;verticalAlign=middle;strokeWidth=1;autosize=1;spacing=4;treeFolding=1;treeMoving=1;newEdgeStyle={&quot;edgeStyle&quot;:&quot;entityRelationEdgeStyle&quot;,&quot;startArrow&quot;:&quot;none&quot;,&quot;endArrow&quot;:&quot;none&quot;,&quot;segment&quot;:10,&quot;curved&quot;:1};sketch=0;fontSize=16;" parent="1" vertex="1">
          <mxGeometry x="761" y="890" width="223" height="31" as="geometry" />
        </mxCell>
        <mxCell id="LiceOfBnI9fiPLoIfjBw-34" value="" style="edgeStyle=entityRelationEdgeStyle;startArrow=none;endArrow=none;segment=10;rounded=1;sketch=0;exitX=1;exitY=0.5;exitDx=0;exitDy=0;fontSize=16;curved=1;" parent="1" source="LiceOfBnI9fiPLoIfjBw-24" target="LiceOfBnI9fiPLoIfjBw-33" edge="1">
          <mxGeometry relative="1" as="geometry">
            <mxPoint x="648" y="1012" as="sourcePoint" />
          </mxGeometry>
        </mxCell>
        <mxCell id="LiceOfBnI9fiPLoIfjBw-35" value="抽象类" style="text;html=1;align=center;verticalAlign=middle;resizable=0;points=[];autosize=1;strokeColor=none;fillColor=none;fontSize=16;rounded=1;" parent="1" vertex="1">
          <mxGeometry x="397" y="1032" width="60" height="20" as="geometry" />
        </mxCell>
        <mxCell id="LiceOfBnI9fiPLoIfjBw-54" value="ol/source/Vector" style="whiteSpace=wrap;html=1;rounded=1;arcSize=50;align=center;verticalAlign=middle;strokeWidth=1;autosize=1;spacing=4;treeFolding=1;treeMoving=1;newEdgeStyle={&quot;edgeStyle&quot;:&quot;entityRelationEdgeStyle&quot;,&quot;startArrow&quot;:&quot;none&quot;,&quot;endArrow&quot;:&quot;none&quot;,&quot;segment&quot;:10,&quot;curved&quot;:1};sketch=0;fontSize=16;" parent="1" vertex="1">
          <mxGeometry x="559" y="1773" width="149" height="31" as="geometry" />
        </mxCell>
        <mxCell id="LiceOfBnI9fiPLoIfjBw-55" value="" style="edgeStyle=entityRelationEdgeStyle;startArrow=none;endArrow=none;segment=10;rounded=1;sketch=0;fontSize=16;exitX=1;exitY=0.5;exitDx=0;exitDy=0;curved=1;" parent="1" source="LiceOfBnI9fiPLoIfjBw-26" target="LiceOfBnI9fiPLoIfjBw-54" edge="1">
          <mxGeometry relative="1" as="geometry">
            <mxPoint x="556" y="1409" as="sourcePoint" />
          </mxGeometry>
        </mxCell>
        <mxCell id="LiceOfBnI9fiPLoIfjBw-58" value="ol/source/ImageStatic" style="whiteSpace=wrap;html=1;rounded=1;arcSize=50;align=center;verticalAlign=middle;strokeWidth=1;autosize=1;spacing=4;treeFolding=1;treeMoving=1;newEdgeStyle={&quot;edgeStyle&quot;:&quot;entityRelationEdgeStyle&quot;,&quot;startArrow&quot;:&quot;none&quot;,&quot;endArrow&quot;:&quot;none&quot;,&quot;segment&quot;:10,&quot;curved&quot;:1};sketch=0;fontSize=16;" parent="1" vertex="1">
          <mxGeometry x="761" y="629" width="189" height="31" as="geometry" />
        </mxCell>
        <mxCell id="LiceOfBnI9fiPLoIfjBw-59" value="" style="edgeStyle=entityRelationEdgeStyle;startArrow=none;endArrow=none;segment=10;rounded=1;sketch=0;fontSize=16;exitX=1;exitY=0.5;exitDx=0;exitDy=0;curved=1;" parent="1" source="LiceOfBnI9fiPLoIfjBw-24" target="LiceOfBnI9fiPLoIfjBw-58" edge="1">
          <mxGeometry relative="1" as="geometry">
            <mxPoint x="631" y="779.5" as="sourcePoint" />
          </mxGeometry>
        </mxCell>
        <mxCell id="LiceOfBnI9fiPLoIfjBw-60" value="ol/source/ImageWMS" style="whiteSpace=wrap;html=1;rounded=1;arcSize=50;align=center;verticalAlign=middle;strokeWidth=1;autosize=1;spacing=4;treeFolding=1;treeMoving=1;newEdgeStyle={&quot;edgeStyle&quot;:&quot;entityRelationEdgeStyle&quot;,&quot;startArrow&quot;:&quot;none&quot;,&quot;endArrow&quot;:&quot;none&quot;,&quot;segment&quot;:10,&quot;curved&quot;:1};sketch=0;fontSize=16;" parent="1" vertex="1">
          <mxGeometry x="761" y="980" width="188" height="31" as="geometry" />
        </mxCell>
        <mxCell id="LiceOfBnI9fiPLoIfjBw-61" value="" style="edgeStyle=entityRelationEdgeStyle;startArrow=none;endArrow=none;segment=10;rounded=1;sketch=0;fontSize=16;exitX=1;exitY=0.5;exitDx=0;exitDy=0;curved=1;" parent="1" source="LiceOfBnI9fiPLoIfjBw-24" target="LiceOfBnI9fiPLoIfjBw-60" edge="1">
          <mxGeometry relative="1" as="geometry">
            <mxPoint x="731" y="1085" as="sourcePoint" />
          </mxGeometry>
        </mxCell>
        <mxCell id="LiceOfBnI9fiPLoIfjBw-62" value="ol/source/Raster" style="whiteSpace=wrap;html=1;rounded=1;arcSize=50;align=center;verticalAlign=middle;strokeWidth=1;autosize=1;spacing=4;treeFolding=1;treeMoving=1;newEdgeStyle={&quot;edgeStyle&quot;:&quot;entityRelationEdgeStyle&quot;,&quot;startArrow&quot;:&quot;none&quot;,&quot;endArrow&quot;:&quot;none&quot;,&quot;segment&quot;:10,&quot;curved&quot;:1};sketch=0;fontSize=16;" parent="1" vertex="1">
          <mxGeometry x="761" y="1080" width="152" height="31" as="geometry" />
        </mxCell>
        <mxCell id="LiceOfBnI9fiPLoIfjBw-63" value="" style="edgeStyle=entityRelationEdgeStyle;startArrow=none;endArrow=none;segment=10;rounded=1;sketch=0;fontSize=16;exitX=1;exitY=0.75;exitDx=0;exitDy=0;curved=1;" parent="1" source="LiceOfBnI9fiPLoIfjBw-24" target="LiceOfBnI9fiPLoIfjBw-62" edge="1">
          <mxGeometry relative="1" as="geometry">
            <mxPoint x="691" y="752.0000000000005" as="sourcePoint" />
          </mxGeometry>
        </mxCell>
        <mxCell id="LiceOfBnI9fiPLoIfjBw-67" value="ol/source/DataTile" style="whiteSpace=wrap;html=1;rounded=1;arcSize=50;align=center;verticalAlign=middle;strokeWidth=1;autosize=1;spacing=4;treeFolding=1;treeMoving=1;newEdgeStyle={&quot;edgeStyle&quot;:&quot;entityRelationEdgeStyle&quot;,&quot;startArrow&quot;:&quot;none&quot;,&quot;endArrow&quot;:&quot;none&quot;,&quot;segment&quot;:10,&quot;curved&quot;:1};sketch=0;fontSize=16;" parent="1" vertex="1">
          <mxGeometry x="762" y="1280" width="170" height="30" as="geometry" />
        </mxCell>
        <mxCell id="LiceOfBnI9fiPLoIfjBw-68" value="" style="edgeStyle=entityRelationEdgeStyle;startArrow=none;endArrow=none;segment=10;curved=1;rounded=1;sketch=0;fontSize=16;exitX=1;exitY=0.5;exitDx=0;exitDy=0;" parent="1" source="LiceOfBnI9fiPLoIfjBw-27" target="LiceOfBnI9fiPLoIfjBw-67" edge="1">
          <mxGeometry relative="1" as="geometry">
            <mxPoint x="720" y="1280" as="sourcePoint" />
          </mxGeometry>
        </mxCell>
        <mxCell id="LiceOfBnI9fiPLoIfjBw-71" value="ol/source/UrlTile" style="whiteSpace=wrap;html=1;rounded=1;arcSize=50;align=center;verticalAlign=middle;strokeWidth=1;autosize=1;spacing=4;treeFolding=1;treeMoving=1;newEdgeStyle={&quot;edgeStyle&quot;:&quot;entityRelationEdgeStyle&quot;,&quot;startArrow&quot;:&quot;none&quot;,&quot;endArrow&quot;:&quot;none&quot;,&quot;segment&quot;:10,&quot;curved&quot;:1};sketch=0;fontSize=16;" parent="1" vertex="1">
          <mxGeometry x="762" y="1400" width="160" height="30" as="geometry" />
        </mxCell>
        <mxCell id="LiceOfBnI9fiPLoIfjBw-72" value="" style="edgeStyle=entityRelationEdgeStyle;startArrow=none;endArrow=none;segment=10;curved=1;rounded=1;sketch=0;fontSize=16;exitX=1;exitY=0.5;exitDx=0;exitDy=0;" parent="1" source="LiceOfBnI9fiPLoIfjBw-27" target="LiceOfBnI9fiPLoIfjBw-71" edge="1">
          <mxGeometry relative="1" as="geometry">
            <mxPoint x="730" y="1330" as="sourcePoint" />
          </mxGeometry>
        </mxCell>
        <mxCell id="LiceOfBnI9fiPLoIfjBw-73" value="ol/source/UTFGrid" style="whiteSpace=wrap;html=1;rounded=1;arcSize=50;align=center;verticalAlign=middle;strokeWidth=1;autosize=1;spacing=4;treeFolding=1;treeMoving=1;newEdgeStyle={&quot;edgeStyle&quot;:&quot;entityRelationEdgeStyle&quot;,&quot;startArrow&quot;:&quot;none&quot;,&quot;endArrow&quot;:&quot;none&quot;,&quot;segment&quot;:10,&quot;curved&quot;:1};sketch=0;fontSize=16;" parent="1" vertex="1">
          <mxGeometry x="762" y="1550" width="170" height="30" as="geometry" />
        </mxCell>
        <mxCell id="LiceOfBnI9fiPLoIfjBw-74" value="" style="edgeStyle=entityRelationEdgeStyle;startArrow=none;endArrow=none;segment=10;curved=1;rounded=1;sketch=0;fontSize=16;exitX=1;exitY=0.5;exitDx=0;exitDy=0;" parent="1" source="LiceOfBnI9fiPLoIfjBw-27" target="LiceOfBnI9fiPLoIfjBw-73" edge="1">
          <mxGeometry relative="1" as="geometry">
            <mxPoint x="750" y="1380" as="sourcePoint" />
          </mxGeometry>
        </mxCell>
        <mxCell id="LiceOfBnI9fiPLoIfjBw-76" value="ol/source/GeoTIFF" style="whiteSpace=wrap;html=1;rounded=1;arcSize=50;align=center;verticalAlign=middle;strokeWidth=1;autosize=1;spacing=4;treeFolding=1;treeMoving=1;newEdgeStyle={&quot;edgeStyle&quot;:&quot;entityRelationEdgeStyle&quot;,&quot;startArrow&quot;:&quot;none&quot;,&quot;endArrow&quot;:&quot;none&quot;,&quot;segment&quot;:10,&quot;curved&quot;:1};sketch=0;fontSize=16;" parent="1" vertex="1">
          <mxGeometry x="971" y="1280" width="170" height="30" as="geometry" />
        </mxCell>
        <mxCell id="LiceOfBnI9fiPLoIfjBw-77" value="" style="edgeStyle=entityRelationEdgeStyle;startArrow=none;endArrow=none;segment=10;curved=1;rounded=1;sketch=0;fontSize=16;exitX=1;exitY=0.5;exitDx=0;exitDy=0;" parent="1" source="LiceOfBnI9fiPLoIfjBw-67" target="LiceOfBnI9fiPLoIfjBw-76" edge="1">
          <mxGeometry relative="1" as="geometry">
            <mxPoint x="923" y="1260" as="sourcePoint" />
          </mxGeometry>
        </mxCell>
        <mxCell id="LiceOfBnI9fiPLoIfjBw-79" value="ol/source/TileImage" style="whiteSpace=wrap;html=1;rounded=1;arcSize=50;align=center;verticalAlign=middle;strokeWidth=1;autosize=1;spacing=4;treeFolding=1;treeMoving=1;newEdgeStyle={&quot;edgeStyle&quot;:&quot;entityRelationEdgeStyle&quot;,&quot;startArrow&quot;:&quot;none&quot;,&quot;endArrow&quot;:&quot;none&quot;,&quot;segment&quot;:10,&quot;curved&quot;:1};sketch=0;fontSize=16;" parent="1" vertex="1">
          <mxGeometry x="972" y="1350" width="174" height="31" as="geometry" />
        </mxCell>
        <mxCell id="LiceOfBnI9fiPLoIfjBw-80" value="" style="edgeStyle=entityRelationEdgeStyle;startArrow=none;endArrow=none;segment=10;curved=1;rounded=1;sketch=0;fontSize=16;exitX=1;exitY=0.5;exitDx=0;exitDy=0;" parent="1" source="LiceOfBnI9fiPLoIfjBw-71" target="LiceOfBnI9fiPLoIfjBw-79" edge="1">
          <mxGeometry relative="1" as="geometry">
            <mxPoint x="1000" y="1351" as="sourcePoint" />
          </mxGeometry>
        </mxCell>
        <mxCell id="LiceOfBnI9fiPLoIfjBw-81" value="ol/source/VectorTile" style="whiteSpace=wrap;html=1;rounded=1;arcSize=50;align=center;verticalAlign=middle;strokeWidth=1;autosize=1;spacing=4;treeFolding=1;treeMoving=1;newEdgeStyle={&quot;edgeStyle&quot;:&quot;entityRelationEdgeStyle&quot;,&quot;startArrow&quot;:&quot;none&quot;,&quot;endArrow&quot;:&quot;none&quot;,&quot;segment&quot;:10,&quot;curved&quot;:1};sketch=0;fontSize=16;" parent="1" vertex="1">
          <mxGeometry x="965" y="1449" width="175" height="31" as="geometry" />
        </mxCell>
        <mxCell id="LiceOfBnI9fiPLoIfjBw-82" value="" style="edgeStyle=entityRelationEdgeStyle;startArrow=none;endArrow=none;segment=10;curved=1;rounded=1;sketch=0;fontSize=16;exitX=1;exitY=0.5;exitDx=0;exitDy=0;" parent="1" source="LiceOfBnI9fiPLoIfjBw-71" target="LiceOfBnI9fiPLoIfjBw-81" edge="1">
          <mxGeometry relative="1" as="geometry">
            <mxPoint x="1099" y="1418" as="sourcePoint" />
          </mxGeometry>
        </mxCell>
        <mxCell id="LiceOfBnI9fiPLoIfjBw-83" value="ol/source/BingMaps" style="whiteSpace=wrap;html=1;rounded=1;arcSize=50;align=center;verticalAlign=middle;strokeWidth=1;autosize=1;spacing=4;treeFolding=1;treeMoving=1;newEdgeStyle={&quot;edgeStyle&quot;:&quot;entityRelationEdgeStyle&quot;,&quot;startArrow&quot;:&quot;none&quot;,&quot;endArrow&quot;:&quot;none&quot;,&quot;segment&quot;:10,&quot;curved&quot;:1};sketch=0;fontSize=16;" parent="1" vertex="1">
          <mxGeometry x="1260" y="1111" width="176" height="31" as="geometry" />
        </mxCell>
        <mxCell id="LiceOfBnI9fiPLoIfjBw-84" value="" style="edgeStyle=entityRelationEdgeStyle;startArrow=none;endArrow=none;segment=10;curved=1;rounded=1;sketch=0;fontSize=16;exitX=1;exitY=0.5;exitDx=0;exitDy=0;" parent="1" source="LiceOfBnI9fiPLoIfjBw-79" target="LiceOfBnI9fiPLoIfjBw-83" edge="1">
          <mxGeometry relative="1" as="geometry">
            <mxPoint x="1153" y="1527" as="sourcePoint" />
          </mxGeometry>
        </mxCell>
        <mxCell id="LiceOfBnI9fiPLoIfjBw-85" value="ol/source/IIIF" style="whiteSpace=wrap;html=1;rounded=1;arcSize=50;align=center;verticalAlign=middle;strokeWidth=1;autosize=1;spacing=4;treeFolding=1;treeMoving=1;newEdgeStyle={&quot;edgeStyle&quot;:&quot;entityRelationEdgeStyle&quot;,&quot;startArrow&quot;:&quot;none&quot;,&quot;endArrow&quot;:&quot;none&quot;,&quot;segment&quot;:10,&quot;curved&quot;:1};sketch=0;fontSize=16;" parent="1" vertex="1">
          <mxGeometry x="1260" y="1260" width="128" height="31" as="geometry" />
        </mxCell>
        <mxCell id="LiceOfBnI9fiPLoIfjBw-86" value="" style="edgeStyle=entityRelationEdgeStyle;startArrow=none;endArrow=none;segment=10;curved=1;rounded=1;sketch=0;fontSize=16;exitX=1;exitY=0.5;exitDx=0;exitDy=0;" parent="1" source="LiceOfBnI9fiPLoIfjBw-79" target="LiceOfBnI9fiPLoIfjBw-85" edge="1">
          <mxGeometry relative="1" as="geometry">
            <mxPoint x="1277" y="1354" as="sourcePoint" />
          </mxGeometry>
        </mxCell>
        <mxCell id="LiceOfBnI9fiPLoIfjBw-87" value="ol/source/TileArcGISRest" style="whiteSpace=wrap;html=1;rounded=1;arcSize=50;align=center;verticalAlign=middle;strokeWidth=1;autosize=1;spacing=4;treeFolding=1;treeMoving=1;newEdgeStyle={&quot;edgeStyle&quot;:&quot;entityRelationEdgeStyle&quot;,&quot;startArrow&quot;:&quot;none&quot;,&quot;endArrow&quot;:&quot;none&quot;,&quot;segment&quot;:10,&quot;curved&quot;:1};sketch=0;fontSize=16;" parent="1" vertex="1">
          <mxGeometry x="1261" y="1340" width="214" height="31" as="geometry" />
        </mxCell>
        <mxCell id="LiceOfBnI9fiPLoIfjBw-88" value="" style="edgeStyle=entityRelationEdgeStyle;startArrow=none;endArrow=none;segment=10;curved=1;rounded=1;sketch=0;fontSize=16;exitX=1;exitY=0.5;exitDx=0;exitDy=0;" parent="1" source="LiceOfBnI9fiPLoIfjBw-79" target="LiceOfBnI9fiPLoIfjBw-87" edge="1">
          <mxGeometry relative="1" as="geometry">
            <mxPoint x="1299" y="1438" as="sourcePoint" />
          </mxGeometry>
        </mxCell>
        <mxCell id="LiceOfBnI9fiPLoIfjBw-89" value="ol/source/TileJSON" style="whiteSpace=wrap;html=1;rounded=1;arcSize=50;align=center;verticalAlign=middle;strokeWidth=1;autosize=1;spacing=4;treeFolding=1;treeMoving=1;newEdgeStyle={&quot;edgeStyle&quot;:&quot;entityRelationEdgeStyle&quot;,&quot;startArrow&quot;:&quot;none&quot;,&quot;endArrow&quot;:&quot;none&quot;,&quot;segment&quot;:10,&quot;curved&quot;:1};sketch=0;fontSize=16;" parent="1" vertex="1">
          <mxGeometry x="1261.5" y="1420" width="173" height="31" as="geometry" />
        </mxCell>
        <mxCell id="LiceOfBnI9fiPLoIfjBw-90" value="" style="edgeStyle=entityRelationEdgeStyle;startArrow=none;endArrow=none;segment=10;curved=1;rounded=1;sketch=0;fontSize=16;exitX=1;exitY=0.5;exitDx=0;exitDy=0;" parent="1" source="LiceOfBnI9fiPLoIfjBw-79" target="LiceOfBnI9fiPLoIfjBw-89" edge="1">
          <mxGeometry relative="1" as="geometry">
            <mxPoint x="1299" y="1514" as="sourcePoint" />
          </mxGeometry>
        </mxCell>
        <mxCell id="LiceOfBnI9fiPLoIfjBw-91" value="ol/source/TileWMS" style="whiteSpace=wrap;html=1;rounded=1;arcSize=50;align=center;verticalAlign=middle;strokeWidth=1;autosize=1;spacing=4;treeFolding=1;treeMoving=1;newEdgeStyle={&quot;edgeStyle&quot;:&quot;entityRelationEdgeStyle&quot;,&quot;startArrow&quot;:&quot;none&quot;,&quot;endArrow&quot;:&quot;none&quot;,&quot;segment&quot;:10,&quot;curved&quot;:1};sketch=0;fontSize=16;" parent="1" vertex="1">
          <mxGeometry x="1260" y="1480" width="169" height="31" as="geometry" />
        </mxCell>
        <mxCell id="LiceOfBnI9fiPLoIfjBw-92" value="" style="edgeStyle=entityRelationEdgeStyle;startArrow=none;endArrow=none;segment=10;curved=1;rounded=1;sketch=0;fontSize=16;exitX=1;exitY=0.5;exitDx=0;exitDy=0;" parent="1" source="LiceOfBnI9fiPLoIfjBw-79" target="LiceOfBnI9fiPLoIfjBw-91" edge="1">
          <mxGeometry relative="1" as="geometry">
            <mxPoint x="1353" y="1627" as="sourcePoint" />
          </mxGeometry>
        </mxCell>
        <mxCell id="LiceOfBnI9fiPLoIfjBw-93" value="ol/source/WMTS" style="whiteSpace=wrap;html=1;rounded=1;arcSize=50;align=center;verticalAlign=middle;strokeWidth=1;autosize=1;spacing=4;treeFolding=1;treeMoving=1;newEdgeStyle={&quot;edgeStyle&quot;:&quot;entityRelationEdgeStyle&quot;,&quot;startArrow&quot;:&quot;none&quot;,&quot;endArrow&quot;:&quot;none&quot;,&quot;segment&quot;:10,&quot;curved&quot;:1};sketch=0;fontSize=16;" parent="1" vertex="1">
          <mxGeometry x="1264" y="1560" width="153" height="31" as="geometry" />
        </mxCell>
        <mxCell id="LiceOfBnI9fiPLoIfjBw-94" value="" style="edgeStyle=entityRelationEdgeStyle;startArrow=none;endArrow=none;segment=10;curved=1;rounded=1;sketch=0;fontSize=16;exitX=1;exitY=0.5;exitDx=0;exitDy=0;" parent="1" source="LiceOfBnI9fiPLoIfjBw-79" target="LiceOfBnI9fiPLoIfjBw-93" edge="1">
          <mxGeometry relative="1" as="geometry">
            <mxPoint x="1220" y="1460" as="sourcePoint" />
          </mxGeometry>
        </mxCell>
        <mxCell id="LiceOfBnI9fiPLoIfjBw-97" value="ol/source/XYZ" style="whiteSpace=wrap;html=1;rounded=1;arcSize=50;align=center;verticalAlign=middle;strokeWidth=1;autosize=1;spacing=4;treeFolding=1;treeMoving=1;newEdgeStyle={&quot;edgeStyle&quot;:&quot;entityRelationEdgeStyle&quot;,&quot;startArrow&quot;:&quot;none&quot;,&quot;endArrow&quot;:&quot;none&quot;,&quot;segment&quot;:10,&quot;curved&quot;:1};sketch=0;fontSize=16;" parent="1" vertex="1">
          <mxGeometry x="1264" y="1638" width="136" height="31" as="geometry" />
        </mxCell>
        <mxCell id="LiceOfBnI9fiPLoIfjBw-98" value="" style="edgeStyle=entityRelationEdgeStyle;startArrow=none;endArrow=none;segment=10;curved=1;rounded=1;sketch=0;fontSize=16;exitX=1;exitY=0.5;exitDx=0;exitDy=0;" parent="1" source="LiceOfBnI9fiPLoIfjBw-79" target="LiceOfBnI9fiPLoIfjBw-97" edge="1">
          <mxGeometry relative="1" as="geometry">
            <mxPoint x="1068" y="1769" as="sourcePoint" />
          </mxGeometry>
        </mxCell>
        <mxCell id="LiceOfBnI9fiPLoIfjBw-99" value="ol/source/Zoomify" style="whiteSpace=wrap;html=1;rounded=1;arcSize=50;align=center;verticalAlign=middle;strokeWidth=1;autosize=1;spacing=4;treeFolding=1;treeMoving=1;newEdgeStyle={&quot;edgeStyle&quot;:&quot;entityRelationEdgeStyle&quot;,&quot;startArrow&quot;:&quot;none&quot;,&quot;endArrow&quot;:&quot;none&quot;,&quot;segment&quot;:10,&quot;curved&quot;:1};sketch=0;fontSize=16;" parent="1" vertex="1">
          <mxGeometry x="1260" y="1180" width="161" height="31" as="geometry" />
        </mxCell>
        <mxCell id="LiceOfBnI9fiPLoIfjBw-100" value="" style="edgeStyle=entityRelationEdgeStyle;startArrow=none;endArrow=none;segment=10;curved=1;rounded=1;sketch=0;fontSize=16;exitX=1;exitY=0.5;exitDx=0;exitDy=0;" parent="1" source="LiceOfBnI9fiPLoIfjBw-79" target="LiceOfBnI9fiPLoIfjBw-99" edge="1">
          <mxGeometry relative="1" as="geometry">
            <mxPoint x="1076" y="1445" as="sourcePoint" />
          </mxGeometry>
        </mxCell>
        <mxCell id="LiceOfBnI9fiPLoIfjBw-101" style="edgeStyle=orthogonalEdgeStyle;curved=1;rounded=1;sketch=0;orthogonalLoop=1;jettySize=auto;html=1;exitX=0.5;exitY=1;exitDx=0;exitDy=0;fontSize=16;" parent="1" source="LiceOfBnI9fiPLoIfjBw-93" target="LiceOfBnI9fiPLoIfjBw-93" edge="1">
          <mxGeometry relative="1" as="geometry" />
        </mxCell>
        <mxCell id="LiceOfBnI9fiPLoIfjBw-102" value="ol/source/Cluster" style="whiteSpace=wrap;html=1;rounded=1;arcSize=50;align=center;verticalAlign=middle;strokeWidth=1;autosize=1;spacing=4;treeFolding=1;treeMoving=1;newEdgeStyle={&quot;edgeStyle&quot;:&quot;entityRelationEdgeStyle&quot;,&quot;startArrow&quot;:&quot;none&quot;,&quot;endArrow&quot;:&quot;none&quot;,&quot;segment&quot;:10,&quot;curved&quot;:1};sketch=0;fontSize=16;" parent="1" vertex="1">
          <mxGeometry x="760" y="1775" width="160" height="30" as="geometry" />
        </mxCell>
        <mxCell id="LiceOfBnI9fiPLoIfjBw-103" value="" style="edgeStyle=entityRelationEdgeStyle;startArrow=none;endArrow=none;segment=10;curved=1;rounded=1;sketch=0;fontSize=16;exitX=1;exitY=0.5;exitDx=0;exitDy=0;" parent="1" source="LiceOfBnI9fiPLoIfjBw-54" target="LiceOfBnI9fiPLoIfjBw-102" edge="1">
          <mxGeometry relative="1" as="geometry">
            <mxPoint x="790" y="1560" as="sourcePoint" />
          </mxGeometry>
        </mxCell>
        <mxCell id="LiceOfBnI9fiPLoIfjBw-104" style="edgeStyle=orthogonalEdgeStyle;curved=1;rounded=1;sketch=0;orthogonalLoop=1;jettySize=auto;html=1;exitX=0.5;exitY=1;exitDx=0;exitDy=0;fontSize=16;" parent="1" source="LiceOfBnI9fiPLoIfjBw-73" target="LiceOfBnI9fiPLoIfjBw-73" edge="1">
          <mxGeometry relative="1" as="geometry" />
        </mxCell>
        <mxCell id="LiceOfBnI9fiPLoIfjBw-105" value="ol/source/Stamen" style="whiteSpace=wrap;html=1;rounded=1;arcSize=50;align=center;verticalAlign=middle;strokeWidth=1;autosize=1;spacing=4;treeFolding=1;treeMoving=1;newEdgeStyle={&quot;edgeStyle&quot;:&quot;entityRelationEdgeStyle&quot;,&quot;startArrow&quot;:&quot;none&quot;,&quot;endArrow&quot;:&quot;none&quot;,&quot;segment&quot;:10,&quot;curved&quot;:1};sketch=0;fontSize=16;" parent="1" vertex="1">
          <mxGeometry x="1500" y="1600" width="170" height="30" as="geometry" />
        </mxCell>
        <mxCell id="LiceOfBnI9fiPLoIfjBw-106" value="" style="edgeStyle=entityRelationEdgeStyle;startArrow=none;endArrow=none;segment=10;curved=1;rounded=1;sketch=0;fontSize=16;exitX=1;exitY=0.5;exitDx=0;exitDy=0;" parent="1" source="LiceOfBnI9fiPLoIfjBw-93" target="LiceOfBnI9fiPLoIfjBw-105" edge="1">
          <mxGeometry relative="1" as="geometry">
            <mxPoint x="1440" y="1660" as="sourcePoint" />
          </mxGeometry>
        </mxCell>
        <mxCell id="LiceOfBnI9fiPLoIfjBw-107" value="ol/source/OSM" style="whiteSpace=wrap;html=1;rounded=1;arcSize=50;align=center;verticalAlign=middle;strokeWidth=1;autosize=1;spacing=4;treeFolding=1;treeMoving=1;newEdgeStyle={&quot;edgeStyle&quot;:&quot;entityRelationEdgeStyle&quot;,&quot;startArrow&quot;:&quot;none&quot;,&quot;endArrow&quot;:&quot;none&quot;,&quot;segment&quot;:10,&quot;curved&quot;:1};sketch=0;fontSize=16;" parent="1" vertex="1">
          <mxGeometry x="1500" y="1550" width="150" height="30" as="geometry" />
        </mxCell>
        <mxCell id="LiceOfBnI9fiPLoIfjBw-108" value="" style="edgeStyle=entityRelationEdgeStyle;startArrow=none;endArrow=none;segment=10;curved=1;rounded=1;sketch=0;fontSize=16;exitX=1;exitY=0.5;exitDx=0;exitDy=0;" parent="1" source="LiceOfBnI9fiPLoIfjBw-93" target="LiceOfBnI9fiPLoIfjBw-107" edge="1">
          <mxGeometry relative="1" as="geometry">
            <mxPoint x="1698" y="1660" as="sourcePoint" />
          </mxGeometry>
        </mxCell>
        <mxCell id="LiceOfBnI9fiPLoIfjBw-109" value="ol/source/CartoDB" style="whiteSpace=wrap;html=1;rounded=1;arcSize=50;align=center;verticalAlign=middle;strokeWidth=1;autosize=1;spacing=4;treeFolding=1;treeMoving=1;newEdgeStyle={&quot;edgeStyle&quot;:&quot;entityRelationEdgeStyle&quot;,&quot;startArrow&quot;:&quot;none&quot;,&quot;endArrow&quot;:&quot;none&quot;,&quot;segment&quot;:10,&quot;curved&quot;:1};sketch=0;fontSize=16;" parent="1" vertex="1">
          <mxGeometry x="1500" y="1500" width="170" height="30" as="geometry" />
        </mxCell>
        <mxCell id="LiceOfBnI9fiPLoIfjBw-110" value="" style="edgeStyle=entityRelationEdgeStyle;startArrow=none;endArrow=none;segment=10;curved=1;rounded=1;sketch=0;fontSize=16;exitX=1;exitY=0.5;exitDx=0;exitDy=0;" parent="1" source="LiceOfBnI9fiPLoIfjBw-93" target="LiceOfBnI9fiPLoIfjBw-109" edge="1">
          <mxGeometry relative="1" as="geometry">
            <mxPoint x="1440" y="1660" as="sourcePoint" />
          </mxGeometry>
        </mxCell>
        <mxCell id="LiceOfBnI9fiPLoIfjBw-111" value="ol/source/TileDebug" style="whiteSpace=wrap;html=1;rounded=1;arcSize=50;align=center;verticalAlign=middle;strokeWidth=1;autosize=1;spacing=4;treeFolding=1;treeMoving=1;newEdgeStyle={&quot;edgeStyle&quot;:&quot;entityRelationEdgeStyle&quot;,&quot;startArrow&quot;:&quot;none&quot;,&quot;endArrow&quot;:&quot;none&quot;,&quot;segment&quot;:10,&quot;curved&quot;:1};sketch=0;fontSize=16;" parent="1" vertex="1">
          <mxGeometry x="1500" y="1650" width="180" height="30" as="geometry" />
        </mxCell>
        <mxCell id="LiceOfBnI9fiPLoIfjBw-112" value="" style="edgeStyle=entityRelationEdgeStyle;startArrow=none;endArrow=none;segment=10;curved=1;rounded=1;sketch=0;fontSize=16;exitX=1;exitY=0.5;exitDx=0;exitDy=0;" parent="1" source="LiceOfBnI9fiPLoIfjBw-93" target="LiceOfBnI9fiPLoIfjBw-111" edge="1">
          <mxGeometry relative="1" as="geometry">
            <mxPoint x="1618" y="1930" as="sourcePoint" />
          </mxGeometry>
        </mxCell>
        <mxCell id="8nAPXMqJbFT06LtIJL9S-21" value="&lt;span style=&quot;font-size: 16px&quot;&gt;ol/source/Image&lt;/span&gt;" style="text;html=1;align=center;verticalAlign=middle;resizable=0;points=[];autosize=1;strokeColor=none;fillColor=none;" parent="1" vertex="1">
          <mxGeometry x="1020" y="6" width="130" height="20" as="geometry" />
        </mxCell>
        <mxCell id="8nAPXMqJbFT06LtIJL9S-22" value="&lt;span style=&quot;font-size: 16px&quot;&gt;ol/source/Tile&lt;/span&gt;" style="text;html=1;align=center;verticalAlign=middle;resizable=0;points=[];autosize=1;strokeColor=none;fillColor=none;" parent="1" vertex="1">
          <mxGeometry x="1011" y="100" width="110" height="20" as="geometry" />
        </mxCell>
        <mxCell id="Di5IRrOE-QtIgeF2GaVr-1" value="&lt;span style=&quot;font-size: 16px&quot;&gt;ol/source/GeoTIFF,&lt;/span&gt;&lt;span style=&quot;font-size: 16px&quot;&gt;ol/source/TileImage&lt;/span&gt;" style="text;html=1;align=center;verticalAlign=middle;resizable=0;points=[];autosize=1;strokeColor=none;fillColor=none;" parent="1" vertex="1">
          <mxGeometry x="984" y="167" width="285" height="19" as="geometry" />
        </mxCell>
        <mxCell id="Di5IRrOE-QtIgeF2GaVr-2" value="&lt;span style=&quot;font-size: 16px&quot;&gt;ol/source/Vector&lt;/span&gt;" style="text;html=1;align=center;verticalAlign=middle;resizable=0;points=[];autosize=1;strokeColor=none;fillColor=none;" parent="1" vertex="1">
          <mxGeometry x="1092" y="231" width="124" height="19" as="geometry" />
        </mxCell>
        <mxCell id="Di5IRrOE-QtIgeF2GaVr-3" value="&lt;span style=&quot;font-size: 16px&quot;&gt;ol/source/Vector&lt;/span&gt;" style="text;html=1;align=center;verticalAlign=middle;resizable=0;points=[];autosize=1;strokeColor=none;fillColor=none;" parent="1" vertex="1">
          <mxGeometry x="1098" y="291" width="124" height="19" as="geometry" />
        </mxCell>
        <mxCell id="Di5IRrOE-QtIgeF2GaVr-4" value="&lt;span style=&quot;font-size: 16px&quot;&gt;ol/source/VectorTile&lt;/span&gt;" style="text;html=1;align=center;verticalAlign=middle;resizable=0;points=[];autosize=1;strokeColor=none;fillColor=none;" parent="1" vertex="1">
          <mxGeometry x="1079" y="351" width="150" height="19" as="geometry" />
        </mxCell>
        <mxCell id="Hy9UFO4iI2Xv4dgQI4Yy-1" value="" style="rounded=0;whiteSpace=wrap;html=1;fontSize=16;" vertex="1" parent="1">
          <mxGeometry x="-160" y="800" width="360" height="270" as="geometry" />
        </mxCell>
        <mxCell id="Hy9UFO4iI2Xv4dgQI4Yy-3" value="" style="rounded=0;whiteSpace=wrap;html=1;fontSize=16;" vertex="1" parent="1">
          <mxGeometry x="-120" y="845.5" width="290" height="194.5" as="geometry" />
        </mxCell>
        <mxCell id="Hy9UFO4iI2Xv4dgQI4Yy-4" value="Layer" style="text;html=1;strokeColor=none;fillColor=none;align=center;verticalAlign=middle;whiteSpace=wrap;rounded=0;fontSize=16;" vertex="1" parent="1">
          <mxGeometry x="-160" y="800" width="60" height="30" as="geometry" />
        </mxCell>
        <mxCell id="Hy9UFO4iI2Xv4dgQI4Yy-5" value="source" style="text;html=1;strokeColor=none;fillColor=none;align=center;verticalAlign=middle;whiteSpace=wrap;rounded=0;fontSize=16;" vertex="1" parent="1">
          <mxGeometry x="-120" y="845.5" width="60" height="30" as="geometry" />
        </mxCell>
        <mxCell id="Hy9UFO4iI2Xv4dgQI4Yy-6" value="" style="rounded=0;whiteSpace=wrap;html=1;fontSize=16;" vertex="1" parent="1">
          <mxGeometry x="-100" y="890" width="180" height="130" as="geometry" />
        </mxCell>
        <mxCell id="Hy9UFO4iI2Xv4dgQI4Yy-7" value="Feature" style="text;html=1;strokeColor=none;fillColor=none;align=center;verticalAlign=middle;whiteSpace=wrap;rounded=0;fontSize=16;" vertex="1" parent="1">
          <mxGeometry x="-100" y="891" width="60" height="30" as="geometry" />
        </mxCell>
        <mxCell id="Hy9UFO4iI2Xv4dgQI4Yy-8" value="geometry" style="rounded=0;whiteSpace=wrap;html=1;fontSize=16;" vertex="1" parent="1">
          <mxGeometry x="-90" y="940" width="70" height="60" as="geometry" />
        </mxCell>
        <mxCell id="Hy9UFO4iI2Xv4dgQI4Yy-10" value="style" style="rounded=0;whiteSpace=wrap;html=1;fontSize=16;" vertex="1" parent="1">
          <mxGeometry y="940" width="70" height="60" as="geometry" />
        </mxCell>
      </root>
    </mxGraphModel>
  </diagram>
</mxfile>
